<svg xmlns:inkscape="http://www.inkscape.org/namespaces/inkscape" xmlns:sodipodi="http://sodipodi.sourceforge.net/DTD/sodipodi-0.dtd" xmlns="http://www.w3.org/2000/svg" xmlns:svg="http://www.w3.org/2000/svg" xmlns:rdf="http://www.w3.org/1999/02/22-rdf-syntax-ns#" xmlns:cc="http://creativecommons.org/ns#" xmlns:dc="http://purl.org/dc/elements/1.1/" viewBox="0 0 10.583333 13.2291675" version="1.1" x="0px" y="0px"><g transform="translate(0,0.5291667)"><path style="color:#000000;" d="m 3.2321407,2.8611603 a 0.26458349,0.26458349 0 0 0 -0.22841,0.100252 0.26458349,0.26458349 0 0 0 0.043408,0.371037 l 2.0799764,1.636593 a 0.26460995,0.26460995 0 0 0 0.3281455,0 l 2.0799763,-1.636593 a 0.26458349,0.26458349 0 0 0 0.044958,-0.371037 0.26458349,0.26458349 0 0 0 -0.3710368,-0.04496 L 5.2909297,4.4243723 3.3752843,2.9164543 A 0.26458349,0.26458349 0 0 0 3.2321407,2.8611603 Z m 0,1.636593 a 0.26458349,0.26458349 0 0 0 -0.22841,0.100252 0.26458349,0.26458349 0 0 0 0.043408,0.371037 l 2.0799764,1.638659 a 0.26460995,0.26460995 0 0 0 0.3281455,0 l 2.0799763,-1.638659 a 0.26458349,0.26458349 0 0 0 0.044958,-0.371037 0.26458349,0.26458349 0 0 0 -0.3710368,-0.04496 L 5.2909297,6.0630323 3.3752843,4.5530463 a 0.26458349,0.26458349 0 0 0 -0.1431436,-0.05529 z" fill="#000000" stroke-width="1" stroke-linecap="round" stroke-linejoin="round"/></g><text x="0" y="25.583334" fill="#000000" font-size="5px" font-weight="bold" font-family="'Helvetica Neue', Helvetica, Arial-Unicode, Arial, Sans-serif">Created by Larea</text><text x="0" y="30.583334" fill="#000000" font-size="5px" font-weight="bold" font-family="'Helvetica Neue', Helvetica, Arial-Unicode, Arial, Sans-serif">from the Noun Project</text></svg>