<svg xmlns="http://www.w3.org/2000/svg" xmlns:xlink="http://www.w3.org/1999/xlink" version="1.1" x="0px" y="0px" viewBox="-5.0 -10.0 110.0 135.0" enable-background="new 0 0 100 100" xml:space="preserve"><path d="M87.1,26H12.9c-2.2,0-4-1.8-4-4v0c0-2.2,1.8-4,4-4h74.1c2.2,0,4,1.8,4,4v0C91.1,24.2,89.3,26,87.1,26z M80,50L80,50  c0-2.2-1.8-4-4-4H24c-2.2,0-4,1.8-4,4v0c0,2.2,1.8,4,4,4h52C78.2,54,80,52.2,80,50z M65,78L65,78c0-2.2-1.8-4-4-4H39  c-2.2,0-4,1.8-4,4v0c0,2.2,1.8,4,4,4h22C63.2,82,65,80.2,65,78z"/></svg>